<svg version="1.1" baseProfile="tiny" xmlns="http://www.w3.org/2000/svg" xmlns:xlink="http://www.w3.org/1999/xlink" x="0px"
	 y="0px" width="100%" height="100%" viewBox="0 0 842.9 596.3" xml:space="preserve">
<g id="Layer_1">
	<rect id="XMLID_1_" x="0" y="0" fill="#5F8BC8" stroke="none" stroke-miterlimit="10" width="841.9" height="595.3"/>
</g>
<g id="cloud-3">
	<path id="XMLID_522_" fill="#FFFFFF" d="M626.2,373.6c0-0.3,0.1-0.5,0.1-0.8c0-2.8-1.8-5.1-4.3-5.8c0.2-0.5,0.3-1,0.3-1.6
		c0-2.2-1.7-4-3.8-4c-1,0-1.8,0.4-2.5,1c-1.9-2.3-4.6-3.7-7.7-3.7c-2.2,0-4.2,0.7-5.9,2c0.1-0.5,0.1-1.1,0.1-1.6
		c0-5.6-4.3-10.1-9.6-10.1c-3.5,0-6.5,1.9-8.2,4.8c-1.3-2.1-3.5-3.5-6-3.5c-1.3,0-2.5,0.4-3.5,1c-1-0.6-2.3-1-3.5-1
		c-3.9,0-7.1,3.3-7.1,7.5c0,0.7,0.1,1.3,0.3,2c-3.5,1.4-6,4.9-6,9.1c0,0.2,0,0.4,0,0.6c-0.2,0-0.4,0-0.5,0c-3.2,0-5.7,2.7-5.7,6
		s2.6,6,5.7,6c0.9,0,1.8-0.2,2.6-0.7c1.2,2.7,3.9,4.6,6.9,4.6c1.7,0,3.3-0.6,4.6-1.6c2.4,2.4,5.7,3.8,9.3,3.8c3.7,0,7-1.5,9.4-4
		c1.4,2.1,3.7,3.4,6.2,3.4c4.1,0,7.4-3.3,7.6-7.5c1.1,0.4,2.2,0.6,3.4,0.6c3.1,0,5.9-1.5,7.8-3.8c1,1.5,2.7,2.4,4.5,2.4
		c1.1,0,2.1-0.3,2.9-0.8c0.5,1,1.5,1.8,2.6,1.8c1.6,0,2.9-1.4,2.9-3C629,375,627.8,373.7,626.2,373.6z"/>
</g>
<g id="cloud-2">
	<path id="XMLID_28_" fill="#FFFFFF" d="M537.2,131.6c0.6-0.9,0.9-2,0.9-3.2c0-3.2-2.6-5.8-5.8-5.8c-1.5,0-2.9,0.6-3.9,1.5
		c-1.4-2.3-4-3.9-7-3.9c-1.6,0-3.2,0.5-4.5,1.3c-0.8-7-6.7-12.4-13.9-12.4c-5,0-9.4,2.6-11.9,6.6c-1.1-0.5-2.3-0.9-3.7-0.9
		c-4.5,0-8.2,3.7-8.2,8.2c0,1.4,0.3,2.7,0.9,3.8c-0.3,0-0.6,0-0.9,0c-6.1,0-11,4.8-11,10.9c0,6.1,4.9,10.9,11,10.9
		c6.1,0,51.1,0,56,0c4.8,0,8.8-3.8,8.8-8.7C544,135.7,541.1,132.4,537.2,131.6z"/>
</g>
<g id="baloon">
	<g id="XMLID_493_">
		<path id="XMLID_491_" fill="none" d="M425.3,361.4c-0.6,0-1.2,0-1.7,0c-0.6,0-1.2,0-1.8,0c0.6,0,1.2,0,1.8,0
			C424.2,361.4,424.7,361.4,425.3,361.4z"/>
		<path id="XMLID_490_" fill="none" d="M392,369.3c0,0-2.3-25.4-13.2-35.4c-22.2-20-50.4-44.5-68.8-72.3l87.2,157.1l1-1.6l-5-45.6
			C392.4,370.8,392,370.1,392,369.3z"/>
		<path id="XMLID_489_" fill="none" d="M404.1,380.7l-6.5-6.8c-0.7-0.3-1.4-0.5-2-0.8L404.1,380.7z"/>
		<path id="XMLID_488_" fill="none" d="M455.2,369.3c0,0.8-0.4,1.5-1.2,2.2l-5.1,46.2l0.5,0.9l83.5-156.5
			c-18.4,27.6-46.5,51.7-68.7,71.7C464.2,333.8,454.9,352.6,455.2,369.3z"/>
		<path id="XMLID_458_" fill="none" d="M421,381.1v-3.9c-6-0.2-10.6-0.6-14.7-1.4l8,13.2l0.8,0.5v-2.8
			C415,383.7,418,381.1,421,381.1z"/>
		<path id="XMLID_457_" fill="none" d="M429,380.5h-2.1c3.2,0,7.1,3.2,7.1,6.3v3.2l0.4-0.9l8.6-13.2c-4.3,0.7-11,1.2-14,1.4V380.5z"
			/>
		<path id="XMLID_91_" fill="none" d="M426.9,400.5h-7.2c-3.2,0-4.7-2.2-4.7-5.3v-2.9l-13,26.2h2.6h18.8h18.8h2.6L434,392.3v2.8
			C434,398.3,430.1,400.5,426.9,400.5z"/>
		<path id="XMLID_487_" fill="none" d="M411.2,387l-6.6-11.3c-1.9-0.4-3.7-0.8-5.3-1.3L411.2,387z"/>
		<path id="XMLID_486_" fill="none" d="M436,387l11.9-12.5c-1.6,0.5-3.3,0.9-5.3,1.3L436,387z"/>
		<path id="XMLID_485_" fill="none" d="M448.9,419.5l-0.2-0.3l0,0.4c0.1,0,0.1,0,0.2,0.1L448.9,419.5z"/>
		<path id="XMLID_484_" fill="none" d="M397.7,419.5L397.7,419.5C397.7,419.6,397.7,419.6,397.7,419.5c0.3,0,0.5-0.1,0.8-0.1l-0.1-1
			L397.7,419.5z"/>
		<path id="XMLID_90_" fill="none" d="M410.7,397.4L399,417.2l0.2,1.7c0.1,0,0.2-0.4,0.3-0.4h1.5c0,0,0,0.3,0,0.3L410.7,397.4z"/>
		<path id="XMLID_89_" fill="none" d="M447.9,418.9l0.2-1.2l-12.1-20.4l9.6,21.5c0,0,0-0.3,0-0.3h1.5
			C447.4,418.5,447.6,418.9,447.9,418.9z"/>
		<polygon id="XMLID_88_" fill="none" points="412.4,388.9 394.4,372.9 399,415.9 414.2,391 415,391.1 415,391.1 		"/>
		<path id="XMLID_483_" fill="none" d="M449.5,373.9l-6.4,6.8l8.4-7.6C450.8,373.4,450.2,373.7,449.5,373.9z"/>
		<polygon id="XMLID_482_" fill="none" points="435.3,388.9 433.2,391.1 448.2,416.6 453,372.9 		"/>
		<path id="XMLID_481_" fill="none" d="M394.1,372.2C394.1,372.2,394.1,372.2,394.1,372.2C394.1,372.2,394.1,372.2,394.1,372.2
			L394.1,372.2C394.1,372.2,394.1,372.2,394.1,372.2z"/>
		<polygon id="XMLID_480_" fill="none" points="453.1,372.2 453.1,372.2 453.1,372.2 453,372.2 		"/>
		<path id="XMLID_534_" fill="#A33322" d="M449.4,418.6l-0.5-0.9l5.1-46.2l0.4-4l0-0.1l0,0l-6.5,6.9L436,387l6.6-11.3l6.3-10.8
			c0.1-0.1,0.1-0.3,0-0.4c0-0.1-0.1-0.1-0.2-0.2c-0.1-0.1-0.3-0.1-0.4,0c-0.1,0-0.1,0.1-0.2,0.2l-6.7,11.4l-7.1,13.2L434,390v2.3
			l10.7,26.2h0.9c0,0,0,0.3,0,0.3l-9.6-21.6l12.1,20.6l-0.2,1.5c0.3,0,0.6,0.1,0.8,0.2l0-0.4l0.2,0.3l-0.1,0.1
			c0.5,0.2,0.9,0.4,1.2,0.7c0.1-0.1,0.1-0.3,0-0.5l-0.2-0.3l89.5-167.7c0.1-0.1,0.1-0.3,0-0.5c-2,3.6-4.2,7.2-6.5,10.7L449.4,418.6z
			 M449.5,373.9l4.8-4.1l0.7,2.4v0c0,0,0,0,0,0c0,0-1,0-1,0c-0.2-0.2-0.9-0.2-1.1,0l-1.3,0.9l-8.5,7.6L449.5,373.9z M433.2,391.1
			l2.1-2.3l17.7-16l-4.8,43.7L433.2,391.1z"/>
		<path id="XMLID_478_" fill="#D32027" d="M378.8,333.9c0,0,1.8-0.8,4.9-2c-31.6-34.8-75.6-92.6-77.2-145.4
			c-0.9-31.6,8.5-51.1,20.5-63.2c0,0-46.5,19.7-35.2,94.3c1.7,11.6,6,22.8,11.9,33.5c1.9,3.5,4,7,6.3,10.4
			C328.4,289.4,356.6,313.9,378.8,333.9z"/>
		<path id="XMLID_477_" fill="#D32027" d="M515.9,123.4c12,12.1,21.5,31.6,20.5,63.2c-1.6,52.5-45.2,110.1-76.8,145
			c3,1.3,4.6,2.3,4.6,2.3c22.2-20,50.3-44.2,68.7-71.7c2.3-3.5,4.5-7.1,6.5-10.7c5.8-10.6,10-21.6,11.7-33.1
			C562.4,143.7,515.9,123.4,515.9,123.4z"/>
		<path id="XMLID_476_" fill="#F1E915" d="M306.5,186.5c1.6,52.7,45.6,110.5,77.2,145.4c-3.1,1.2-4.9,2-4.9,2
			c10.9,10.1,13.2,35.4,13.2,35.4c0-0.6,0.3-1.2,0.7-1.7l0-0.1l0.1,0.1c1-1.1,2.9-2.1,5.4-3c0-0.1,0.1-0.1,0.2-0.2
			c0.1-0.1,0.3-0.1,0.4,0c5.4-1.7,13.7-2.9,23-3c0.6,0,1.2,0,1.8,0c0.6,0,1.2,0,1.7,0c9.3,0.1,17.6,1.3,23.1,3c0.1-0.1,0.3,0,0.4,0
			c0.1,0,0.1,0.1,0.2,0.2c2.6,0.9,4.5,1.9,5.5,3l0,0l0,0.1c0.5,0.6,0.8,1.2,0.8,1.8c-0.3-16.8,9.1-35.5,9.1-35.5s-1.6-1-4.6-2.3
			c31.6-34.9,75.2-92.4,76.8-145c0.9-31.6-8.5-51.1-20.5-63.2c-19.2-19.3-44.9-19.5-45.4-19.5c14,10.7,27.3,30.7,30.1,68.1
			c4,54.2-28.6,116.7-53.1,155.3c-3.7-1-8-1.9-12.6-2.5C446.7,286.4,462,228,462,182.9c0-56.2-13.9-82-27.7-91.1
			c-4.2-2.8-8.5-4-12.3-4c-3.9,0-8,1.2-12,4c-12.9,9-24.8,34.7-24.8,90.6c0,45.6,13.9,104.7,24.5,142.8c-4.9,0.7-9.5,1.7-13.6,2.8
			c-24.6-38.5-57.7-101.6-53.6-156.1c2.8-37.4,16-57.4,30.1-68.1c-0.5,0-26.2,0.3-45.4,19.5C315.1,135.4,305.6,155,306.5,186.5z"/>
		<path id="XMLID_475_" fill="#D32027" d="M462,182.9c0,45.1-15.3,103.5-27.1,141.9c4.7,0.6,8.9,1.5,12.6,2.5
			c24.5-38.6,57.1-101.1,53.1-155.3c-2.8-37.4-16-57.4-30.1-68.1c-15.4-11.7-31.8-12.2-36.3-12.1C448,100.8,462,126.7,462,182.9z"/>
		<path id="XMLID_474_" fill="#D32027" d="M342.4,171.9c-4.1,54.6,29.1,117.6,53.6,156.1c4.1-1.1,8.7-2.1,13.6-2.8
			c-10.5-38.1-24.5-97.1-24.5-142.8c0-55.9,12-81.6,24.8-90.6c0,0-19.4-1.7-37.5,12C358.4,114.5,345.1,134.5,342.4,171.9z"/>
		<path id="XMLID_473_" fill="#C23F29" d="M394.7,372.2l1,0.9c0.6,0.3,1.3,0.6,2,0.8l-3.8-4l0.3,2.3c0,0,0,0,0,0
			C394.3,372,394.5,372,394.7,372.2z"/>
		<path id="XMLID_472_" fill="#C23F29" d="M393.2,371.5l-0.4-3.9c-0.5,0.6-0.7,1.1-0.7,1.7C392,370.1,392.4,370.8,393.2,371.5z"/>
		<path id="XMLID_471_" fill="#C23F29" d="M455.2,369.3c0-0.6-0.3-1.2-0.8-1.8l-0.4,4C454.8,370.8,455.2,370.1,455.2,369.3z"/>
		<path id="XMLID_470_" fill="#C23F29" d="M452.5,372.2c0.2-0.2,0.4-0.1,0.6,0c0,0,0,0,0,0l0.3-2.4l-3.8,4.1c0.7-0.3,1.4-0.5,2-0.8
			L452.5,372.2z"/>
		<path id="XMLID_82_" fill="#C23F29" d="M423.6,361.4c-0.6,0-1.2,0-1.8,0c-9.3,0.1-17.5,1.3-23,3c0.1,0,0.1,0.1,0.2,0.2l7.3,11.4
			c4.1,0.7,8.7,1.2,14.7,1.4V375c0-1.6,2.1-2.9,4-2.9s4,1.3,4,2.9v2.3c3-0.1,9.4-0.6,13.6-1.4l6.1-11.4c0-0.1-0.2-0.1-0.1-0.2
			c-5.5-1.7-13.9-2.9-23.2-3C424.9,361.4,424.2,361.4,423.6,361.4z"/>
		<path id="XMLID_469_" fill="#C23F29" d="M448.9,364.6c0.1,0.1,0.1,0.3,0,0.4l-6.3,10.8c1.9-0.4,3.7-0.8,5.3-1.3l6.5-6.9
			C453.4,366.4,451.5,365.4,448.9,364.6z"/>
		<path id="XMLID_468_" fill="#C23F29" d="M392.8,367.6l6.5,6.9c1.6,0.5,3.3,0.9,5.3,1.3l-6.3-10.7c-0.1-0.1-0.1-0.3,0-0.4
			C395.6,365.5,393.8,366.5,392.8,367.6z"/>
		<path id="XMLID_518_" fill="#A33322" d="M397.7,419.6C397.7,419.6,397.7,419.6,397.7,419.6L397.7,419.6l0.6-1.2l0.1,1
			c0.3-0.1,0.5-0.1,0.8-0.1l-0.2-2l11.7-19.8l-9.6,21.4c0,0,0-0.3,0-0.3h0.9l13-26.2v-1.2l-0.9-0.2l-15,24.9l-4.9-43l18.2,16
			l2.6,2.2v-1.5l-1.1-0.5l-8-13.2l-6.8-11.4c0-0.1-0.2-0.1-0.2-0.2c-0.1-0.1-0.3-0.1-0.4,0c-0.1,0-0.2,0.1-0.2,0.2
			c-0.1,0.1-0.1,0.3,0,0.4l6.3,10.7l6.6,11.3l-11.9-12.6l-6.5-6.9l-0.1-0.1l0,0.1l0.4,3.9l5,45.6l-1,1.6L310,261.6
			c-2.2-3.4-4.4-6.9-6.3-10.4c0,0,0,0,0,0c-0.2,0.1-0.3,0.4-0.2,0.6l93.1,167.8l-0.1,0.2c-0.1,0.2-0.1,0.3,0,0.5
			C396.9,420,397.3,419.8,397.7,419.6z M393.8,369.9l3.8,4l6.5,6.8l-8.5-7.7l-1-0.9c-0.2-0.2,0.5-0.1,0.4,0c0,0,0.9,0,0.9,0
			c0,0,0,0,0,0l-1-0.1L393.8,369.9z"/>
		<path id="XMLID_467_" fill="#914C21" d="M415.1,429.6c-0.3,0.5-0.7,1.1-1.3,1.8c-0.1,0.1-0.1,0.1-0.2,0.2l3.5,0.2
			c-0.2-0.1-0.3-0.3-0.5-0.4C415.9,430.7,415.4,430,415.1,429.6z"/>
		<path id="XMLID_76_" fill="#914C21" d="M410.2,428.5l-0.1,1.5l2.3,0.7c1.6-1.2,2.1-2.3,2.2-2.3h-15.1c-0.1,0-0.2,0-0.4,0
			c0.1,0.2,0.6,1.2,1.7,2.2c0,0,0.1-1.3,0.1-1.2l5.5-1H410.2z"/>
		<path id="XMLID_75_" fill="#914C21" d="M417.2,430.7c0.5,0.4,1,0.8,1.5,1.1l2-1.2l-0.6-2.1h2.7l0,0h-7.3
			C415.6,428.5,416.1,429.8,417.2,430.7z"/>
		<path id="XMLID_466_" fill="#914C21" d="M399.8,430.8c-0.4-0.4-0.7-0.7-0.9-1.1l0.2,1.2h0l0-0.1L399.8,430.8z"/>
		<path id="XMLID_74_" fill="#A15525" d="M406.5,428.5l-5.5,1c1.2,1,2.6,1.1,4.3,1.4l-1.4-2.4H406.5z"/>
		<path id="XMLID_71_" fill="#A15525" d="M423.3,445.5c-2.8,0-5-0.6-5-4.5c0-2.9,2-5.9,3.8-7.6c-2.3-0.3-3.9-1-5-1.8l-3.5-0.1
			c-1,1-2.7,2.1-5.2,2.3c1.8,1.6,3.7,4.9,3.7,7.9c0,3.9-2.2,5.2-5,5.2c-2.8,0-5-1.3-5-5.2c0-2.9,2-6.3,3.7-7.9
			c-2.7-0.3-4.5-1.5-5.6-2.5c-0.2-0.2,0.1-0.4-0.1-0.5l-0.2,0v0l3.4,26.4c0,2.2,1.3,3.4,3.6,3.4h17v-15
			C424,445.5,423.3,445.5,423.3,445.5z"/>
		<path id="XMLID_465_" fill="#A15525" d="M421.4,432.8l-0.7-0.9l-2-0.1C419.5,432.3,420.4,432.6,421.4,432.8z"/>
		<path id="XMLID_464_" fill="#A15525" d="M409,432.9c1.5-0.2,2.6-0.8,3.4-1.4l-2.3-0.1L409,432.9z"/>
		<path id="XMLID_463_" fill="#7F411C" d="M448,428.8c0,0.1-0.4,1.3-1.7,2.6c-0.6,0.6-1.5,1.3-2.8,1.8l3.8,0.2l0,0h0l0.9-5
			c-0.1,0-0.1,0-0.2,0C448.1,428.6,448.1,428.7,448,428.8z"/>
		<path id="XMLID_70_" fill="#7F411C" d="M433.5,430.7c1.2,1,2.5,0.4,4.1,0.8l-1.3-3h6.4l-1.3,3.1c4.4-0.6,5.7-3.4,5.9-3.7
			c-0.1,0-0.1,0.6-0.2,0.6h-15.3C431.9,428.5,432.4,429.8,433.5,430.7z"/>
		<path id="XMLID_462_" fill="#7F411C" d="M431.4,429.6c-0.3,0.5-0.7,1.1-1.3,1.8c-0.3,0.3-0.7,0.7-1.2,1l6.1,0.3
			c-0.9-0.4-1.6-1-2.1-1.4C432.2,430.7,431.7,430,431.4,429.6z"/>
		<path id="XMLID_69_" fill="#7F411C" d="M426.5,428.5l-0.8,2.4l1.6,0.7c2.6-1.2,3.5-3.1,3.6-3.1h-8.1l0,0H426.5z"/>
		<path id="XMLID_461_" fill="#914C21" d="M425.2,432.9c0.8-0.1,1.5-0.3,2.1-0.6l-1.6-0.1L425.2,432.9z"/>
		<path id="XMLID_68_" fill="#914C21" d="M443.6,433.2c-0.8,0.3-1.7,0.5-2.7,0.6c1.8,1.6,3.7,4.9,3.7,7.9c0,3.9-2.2,5.2-5,5.2
			c-2.8,0-5-1.3-5-5.2c0-2.9,2-6.3,3.8-7.9c-1.3-0.2-2.4-0.6-3.3-1l-6.1-0.3c-1,0.7-2.4,1.3-4.2,1.4c1.8,1.6,4,4.9,4,7.9
			c0,3.9-3.6,5.2-4.6,5.2v13.6h15.6c2.3,0,4.1-1.2,4.1-3.4l3.7-24l0,0.1L443.6,433.2z"/>
		<path id="XMLID_67_" fill="#601D15" d="M426.9,380.5h2.1v-3.2V375c0-1.6-2.1-2.9-4-2.9s-4,1.3-4,2.9v2.3v3.9c-3,0-6,2.5-6,5.7v2.8
			v1.5v0v1.2v2.9c0,3.1,1.5,5.3,4.7,5.3h7.2c3.2,0,7.1-2.2,7.1-5.3v-2.8V390v-3.2C434,383.7,430.1,380.5,426.9,380.5z"/>
		<path id="XMLID_460_" fill="#8FD0D5" d="M400.3,431.3c1.1,1,2.9,2.1,5.6,2.5c0,0,0,0,0.1-0.1l-0.7-0.8c-1.6-0.3-3.1-1-4.3-2
			c0,0-0.1-0.1-0.1-0.1c-1.1-1-1.6-1.9-1.7-2.2c-0.3,0-0.5-0.1-0.8-0.1c-0.1,0.1-0.1,0.2,0,0.4c0,0,0.1,0.3,0.5,0.8
			c0.2,0.3,0.5,0.7,0.9,1.1C399.9,430.9,400.1,431.1,400.3,431.3z"/>
		<path id="XMLID_66_" fill="#8FD0D5" d="M421.4,432.8c-1-0.2-1.9-0.5-2.8-1c-0.5-0.3-1-0.7-1.5-1.1c-1.1-1-1.6-2.2-1.7-2.2h-0.8
			c-0.1,0-0.7,1.7-2.2,2.9c-0.8,0.6-2,1.2-3.4,1.5l-0.6,0.9c0,0,0,0,0,0c2.5-0.2,4.2-1.3,5.2-2.3c0.1-0.1,0.1-0.1,0.2-0.2
			c0.6-0.7,1.1-1.3,1.3-1.8c0.3,0.5,0.8,1.1,1.5,1.7c0.2,0.1,0.3,0.3,0.5,0.4c1.1,0.9,2.7,1.7,5,2c0,0,0,0,0.1-0.1L421.4,432.8z"/>
		<path id="XMLID_65_" fill="#8FD0D5" d="M427.3,432.3c-0.6,0.3-1.3,0.5-2.1,0.6l-0.6,0.9c0,0,0,0,0,0c1.8-0.2,3.2-0.7,4.2-1.4
			c0.5-0.3,0.9-0.7,1.2-1c0.6-0.7,1.1-1.3,1.3-1.8c0.3,0.5,0.8,1.1,1.5,1.7c0.5,0.5,1.2,1,2.1,1.4c0.9,0.5,2,0.8,3.3,1c0,0,0,0,0,0
			l-0.7-0.9c-1.6-0.3-3-1.1-4.1-2.1c-1.1-1-1.6-2.2-1.7-2.2H431C430.9,428.5,430,431.1,427.3,432.3z"/>
		<path id="XMLID_459_" fill="#8FD0D5" d="M441.4,432.9l-0.6,0.8c0,0,0,0,0,0c1.1-0.1,2-0.3,2.7-0.6c1.3-0.5,2.2-1.2,2.8-1.8
			c1.2-1.3,1.7-2.5,1.7-2.6c0-0.1,0-0.2,0-0.3c-0.3,0-0.5,0.1-0.8,0.1C447.1,428.9,445.8,432.3,441.4,432.9z"/>
		<path id="XMLID_64_" fill="#914C21" d="M448.9,419.6c-0.1,0-0.1,0-0.2-0.1c-0.3-0.1-0.5-0.5-0.8-0.6c-0.3,0-0.5-0.4-0.8-0.4h-1.5
			h-0.9h-2.6H424v10h7h0.8h15.3c0.1,0,0.1,0,0.2,0c0.3,0,0.5,0,0.8-0.1c0.1,0,0.6,0,0.6,0c1.7-0.4,3.3-1.5,3.3-3v-2.9
			c0-0.8-0.8-1.6-1.5-2.2C450.2,420,449.3,419.8,448.9,419.6z"/>
		<path id="XMLID_63_" fill="#A15525" d="M399.2,428.5c0.1,0,0.2,0,0.4,0h15.1h0.8h8.5v-10h-19.4H402h-0.9h-1.5
			c-0.1,0-0.2,0.4-0.3,0.4c-0.3,0-0.6,0.3-0.8,0.3c-0.2,0.1-0.5,0.2-0.7,0.3c-0.4,0.2-0.6,0.5-0.9,0.7c-0.7,0.6-0.8,1.4-0.8,2.2v2.9
			c0,1.5,1,2.7,2.7,3C398.9,428.5,398.9,428.5,399.2,428.5z"/>
		<path id="XMLID_62_" fill="#601D15" d="M409,432.9l1.1-2.9l0.1-1.5h-3.8h-2.6l1.4,3l0.7,1.5c0,0,0,0.4-0.1,0.4
			c-1.8,1.6-3.7,5.2-3.7,8.1c0,3.9,2.2,5.3,5,5.3c2.8,0,5-1.2,5-5.2c0-3-1.9-6.2-3.7-7.9c0,0,0,0,0,0L409,432.9z"/>
		<path id="XMLID_61_" fill="#601D15" d="M425.2,432.9l0.5-2l0.8-2.4h-3.1h-3.2l0.6,2.1l0.7,1.6l0.7,1.2c0,0,0,0.2-0.1,0.2
			c-1.8,1.6-3.8,4.4-3.8,7.3c0,3.9,2.2,4.6,5,4.6c0,0,0,0,0,0c2.8,0,5-0.6,5-4.5c0-2.9-1.9-5.9-3.7-7.5c0,0,0,0.2,0,0.1L425.2,432.9
			z"/>
		<path id="XMLID_59_" fill="#601D15" d="M441.4,431.6l1.3-3.1h-6.4l1.3,3l0.7,1.6c0,0,0,0.4,0,0.4c-1.8,1.6-3.8,5.2-3.8,8.1
			c0,3.9,2.2,5.3,5,5.3c2.8,0,5-1.2,5-5.2c0-2.9-1.9-6.2-3.7-7.8c0,0,0-0.7,0-0.7L441.4,431.6z"/>
	</g>
</g>
<g id="cloud-1">
	<path id="XMLID_29_" fill="#FFFFFF" d="M55,293c0,15.8,14.6,29.5,32.6,29.5s110.2,0,118.7,0c8.6,0,15.5-7.1,15.5-14.6
		c0-6.4-5.1-12.3-11.9-13.7c1.2-2.5,1.8-5.5,1.8-8.4c0-12.2-11.3-22.2-25.2-22.2c-2.2,0-4.3,0.2-6.3,0.6c0.9-2.7,1.4-5.5,1.4-8.4
		c0-16-14.8-28.9-33-28.9c-14.7,0-27.1,8.4-31.4,20c-3.9-3.5-9.2-5.7-15.2-5.7c-11.7,0-21.2,8.3-21.2,18.6c0,1.5,0.2,3.4,0.6,4.7
		C66.4,267,55,279.1,55,293z"/>
</g>
</svg>
